# xmcd
#
# Track frame offsets: 
#        187
#        14810
#        32162
#        50860
#        64867
#        78292
#        96345
#        115672
#        128852
#        142287
#        157015
#        170177
#        183112
#        193360
#        203367
#        216922
#        229705
#        240877
#        257627
#        276527
#        304870
#        317580
#
# Disc length: 4409 seconds
#
# Revision: 2
# Processed by: cddbd v1.5.2PL0 Copyright (c) Steve Scherf et al.
# Submitted via: ExactAudioCopy v0.95a5
#
DISCID=4c113716
DTITLE=Marvin Gaye - k-The Very Best Of Marvin Gaye
DYEAR=1994
DGENRE=R&B
TTITLE0=I Heard It Through The Grapevine
TTITLE1=What's Going on
TTITLE2=(Sexual) Healing
TTITLE3=You Are Everything (with Diana Ross)
TTITLE4=It Takes Two (with Kim Weston)
TTITLE5=Let's Get It On
TTITLE6=Abraham, Martin And John
TTITLE7=Too Busy Thinking About My Baby
TTITLE8=How Sweet It Is (To Be Loved By You)
TTITLE9=Mercy Mercy Me (The Ecology)
TTITLE10=Stop, Look, Listen (To Your Heart) (with Diana Ross)
TTITLE11=You're All I Need To Get By (with Tammi Terrell)
TTITLE12=Ain't Nothing Like The Real Thing (with Tammi Terrell)
TTITLE13=Wherever I Lay My Hat (That's My Home)
TTITLE14=The Onion Song (with Tammi Terrell)
TTITLE15=You Ain't Livin' Till You're Lovin' (with Tammi Terrell)
TTITLE16=Good Lovin' Ain't Easy To Come By (with Tammi Terrell)
TTITLE17=That's The Way Love Is
TTITLE18=Got To Give It Up (Part I)
TTITLE19=When Did You Stop Loving Me, When Did I Stop Loving You
TTITLE20=Can I Get A Witness
TTITLE21=Lucky Lucky Me
EXTD=
EXTT0=
EXTT1=
EXTT2=
EXTT3=
EXTT4=
EXTT5=
EXTT6=
EXTT7=
EXTT8=
EXTT9=
EXTT10=
EXTT11=
EXTT12=
EXTT13=
EXTT14=
EXTT15=
EXTT16=
EXTT17=
EXTT18=
EXTT19=
EXTT20=
EXTT21=
PLAYORDER=
